<svg xmlns="http://www.w3.org/2000/svg" viewBox="0 0 512 512">
<defs><linearGradient id="g" x1="0" y1="0" x2="1" y2="1"><stop stop-color="#00ffd0"/><stop offset="1" stop-color="#16c98f"/></linearGradient><filter id="glow"><feGaussianBlur stdDeviation="10" result="b"/><feMerge><feMergeNode in="b"/><feMergeNode in="SourceGraphic"/></feMerge></filter></defs>
<rect x="18" y="18" width="476" height="476" rx="110" fill="#031014" stroke="#00e8b2" stroke-width="14"/>
<g filter="url(#glow)"><path d="M145 116l25-46 58 30 28-57 31 57 58-30 22 46-15 49H160z" fill="url(#g)" stroke="#cffff4" stroke-width="6"/><path d="M126 218c0-57 52-101 116-101h34c64 0 116 44 116 101s-52 101-116 101h-16l-59 55 10-57c-50-13-85-50-85-99z" fill="none" stroke="url(#g)" stroke-width="26" stroke-linejoin="round"/><path d="M181 230c0-24 22-43 49-43h28c27 0 49 19 49 43s-22 43-49 43h-7l-25 23 4-25c-28-5-49-21-49-41z" fill="#07161b" stroke="#bfffee" stroke-width="7"/><circle cx="215" cy="230" r="9" fill="#fff"/><circle cx="243" cy="230" r="9" fill="#fff"/><circle cx="271" cy="230" r="9" fill="#fff"/></g>
</svg>
